<?xml version="1.0" encoding="UTF-8" standalone="no"?>
<svg viewBox="0 0 42 42" version="1.1" xmlns="http://www.w3.org/2000/svg" xmlns:xlink="http://www.w3.org/1999/xlink" xmlns:sketch="http://www.bohemiancoding.com/sketch/ns">
    <!-- Generator: Sketch 3.2.2 (9983) - http://www.bohemiancoding.com/sketch -->
    <title>Artboard 1</title>
    <desc>Created with Sketch.</desc>
    <defs></defs>
    <g id="Page-1" stroke="none" stroke-width="1" fill="none" fill-rule="evenodd" sketch:type="MSPage">
        <g id="Artboard-1" sketch:type="MSArtboardGroup" fill="#B3C0CA">
            <path d="M28.54,4.916 C22.017,-1.608 11.44,-1.608 4.916,4.916 C-1.608,11.44 -1.608,22.016 4.916,28.541 C10.466,34.091 18.946,34.917 25.37,31.027 L35.15,40.807 C36.71,42.367 39.243,42.367 40.804,40.807 C42.364,39.245 42.364,36.713 40.804,35.152 L31.024,25.372 C34.914,18.948 34.09,10.468 28.541,4.919 L28.54,4.916 Z M24.064,24.063 C20.014,28.113 13.444,28.113 9.394,24.063 C5.342,20.013 5.342,13.443 9.394,9.393 C13.444,5.343 20.014,5.343 24.064,9.393 C28.114,13.443 28.114,20.013 24.064,24.063 L24.064,24.063 Z" id="Shape" sketch:type="MSShapeGroup"></path>
        </g>
    </g>
</svg>