<svg 
 xmlns="http://www.w3.org/2000/svg"
 xmlns:xlink="http://www.w3.org/1999/xlink"
 >
<path fill-rule="evenodd"  fill="rgb(131, 144, 169)"
 d="M1.268,23.080 C1.268,23.080 6.721,25.004 8.987,25.004 C8.987,25.004 12.014,26.227 14.089,22.956 C14.089,22.956 14.789,21.937 13.842,21.442 C13.842,21.442 5.191,20.424 5.850,18.818 C5.850,18.818 5.809,17.911 7.004,18.117 C7.004,18.117 8.672,14.877 8.013,14.465 C8.013,14.465 6.983,13.558 7.807,13.476 C7.807,13.476 10.230,13.804 11.013,14.011 C11.013,14.011 11.549,13.818 11.055,13.447 C10.560,13.076 9.736,12.241 9.901,12.076 C9.901,12.076 10.189,11.376 11.508,11.953 C11.508,11.953 12.242,11.160 11.872,10.748 C11.872,10.748 10.760,10.089 11.295,9.553 C11.295,9.553 13.807,6.398 16.605,11.375 C16.605,11.375 17.305,12.323 17.388,11.416 C17.388,11.416 20.811,1.671 25.302,0.888 C25.302,0.888 26.743,1.176 27.032,0.723 C27.032,0.723 28.280,0.229 28.692,0.641 C28.692,0.641 29.104,1.259 29.599,0.888 C29.599,0.888 31.370,0.188 30.835,1.341 C30.835,1.341 29.138,3.213 28.521,3.255 C27.903,3.295 28.026,4.131 28.562,4.213 C28.562,4.213 35.972,4.747 35.972,10.268 C35.972,10.268 36.405,11.579 37.806,10.219 C37.806,10.219 39.926,8.871 40.462,8.806 C40.462,8.806 41.039,8.435 40.957,9.301 C40.957,9.301 39.432,11.939 37.867,12.681 C37.867,12.681 36.920,13.875 38.279,13.629 C38.279,13.629 39.602,13.355 40.220,12.984 C40.220,12.984 41.826,12.202 41.085,13.603 C41.085,13.603 37.702,15.798 36.961,15.798 C36.961,15.798 36.466,15.921 36.466,16.374 C36.466,16.374 36.013,31.412 17.144,31.412 C17.144,31.412 7.695,31.401 1.516,24.151 C1.516,24.151 0.321,22.873 1.268,23.080 Z"/>
</svg>
