<svg 
 xmlns="http://www.w3.org/2000/svg"
 xmlns:xlink="http://www.w3.org/1999/xlink"
 >
<path fill-rule="evenodd"  fill="rgb(131, 144, 169)"
 d="M25.115,17.539 C23.861,16.217 22.192,15.341 20.107,14.913 C20.107,14.913 20.107,14.736 20.107,14.736 C21.557,14.145 22.694,13.221 23.517,11.965 C24.341,10.709 24.753,9.276 24.753,7.665 C24.753,6.276 24.454,5.050 23.857,3.986 C23.260,2.922 22.358,2.072 21.149,1.436 C20.031,0.846 18.834,0.458 17.557,0.273 C16.280,0.089 14.403,-0.004 11.925,-0.004 C11.925,-0.004 0.005,-0.004 0.005,-0.004 C0.005,-0.004 0.005,32.999 0.005,32.999 C0.005,32.999 13.512,32.999 13.512,32.999 C15.853,32.999 17.784,32.793 19.302,32.379 C20.820,31.966 22.214,31.271 23.483,30.296 C24.556,29.483 25.410,28.455 26.044,27.214 C26.679,25.973 26.996,24.533 26.996,22.892 C26.996,20.647 26.369,18.862 25.115,17.539 ZM15.755,11.234 C15.498,11.780 15.030,12.209 14.350,12.519 C13.730,12.800 13.130,12.955 12.548,12.985 C11.967,13.014 10.951,13.029 9.500,13.029 C9.500,13.029 8.435,13.029 8.435,13.029 C8.435,13.029 8.435,6.047 8.435,6.047 C8.435,6.047 9.024,6.047 9.024,6.047 C10.535,6.047 11.672,6.058 12.435,6.080 C13.198,6.102 13.859,6.232 14.418,6.468 C15.007,6.720 15.441,7.126 15.721,7.687 C16.001,8.249 16.141,8.796 16.141,9.327 C16.141,10.052 16.012,10.687 15.755,11.234 ZM17.738,24.876 C17.383,25.504 16.821,25.981 16.050,26.306 C15.173,26.675 14.312,26.874 13.466,26.904 C12.620,26.934 11.094,26.948 8.888,26.948 C8.888,26.948 8.435,26.948 8.435,26.948 C8.435,26.948 8.435,18.681 8.435,18.681 C8.435,18.681 9.999,18.681 9.999,18.681 C11.510,18.681 12.715,18.692 13.614,18.714 C14.513,18.736 15.219,18.844 15.733,19.036 C16.579,19.331 17.213,19.767 17.636,20.343 C18.059,20.919 18.271,21.717 18.271,22.737 C18.271,23.535 18.093,24.248 17.738,24.876 Z"/>
</svg>