<svg xmlns="http://www.w3.org/2000/svg"><path fill-rule="evenodd" fill="#8390A9" d="M27.09 34.062H4.92c-2.697 0-4.883-2.186-4.883-4.883V17.85c0-2.696 2.186-4.882 4.883-4.882h22.17c2.697 0 4.884 2.186 4.884 4.883v11.33c0 2.696-2.187 4.882-4.883 4.882zM9.37 16.192H2.71v2.028h2.243v12.005h2.164V18.22h2.25v-2.028zm5.474 3.678H12.92v7.87c-.18.227-.38.413-.597.558-.216.146-.396.22-.538.22-.18 0-.312-.056-.393-.166-.08-.11-.12-.288-.12-.534V19.87H9.338v8.666c0 .615.113 1.076.34 1.383.225.306.562.46 1.008.46.363 0 .736-.11 1.12-.33.386-.22.756-.54 1.112-.96v1.135h1.922V19.87zm7.404 2.465c0-.847-.16-1.493-.48-1.936-.32-.444-.785-.666-1.393-.666-.297 0-.592.083-.883.248-.29.165-.566.406-.825.723v-4.513h-1.95v14.033h1.95v-.796c.253.316.526.55.82.702.294.152.63.23 1.005.23.57 0 1.004-.197 1.305-.59.3-.39.45-.955.45-1.692v-5.745zm7.123 4.192h-1.98v.718c0 .608-.064 1.002-.19 1.18-.126.177-.348.266-.665.266-.304 0-.52-.104-.645-.314-.126-.21-.19-.587-.19-1.13v-1.95h3.67v-2.64c0-.984-.237-1.738-.71-2.262-.47-.524-1.148-.786-2.027-.786-.86 0-1.563.283-2.106.85-.544.565-.816 1.298-.816 2.197v4.65c0 .995.25 1.778.744 2.347.495.57 1.173.854 2.033.854.957 0 1.677-.27 2.16-.806.48-.536.722-1.335.722-2.396v-.777zm-3.67-3.89c0-.435.067-.745.2-.933.132-.187.35-.28.655-.28.29 0 .503.093.636.28.133.188.2.498.2.932v1.048H25.7v-1.048zM19.58 28.73c-.162 0-.316-.037-.462-.112-.145-.074-.296-.195-.45-.364V21.8c.13-.14.26-.246.392-.314.133-.068.267-.102.403-.102.26 0 .457.09.593.272.136.18.204.446.204.795V27.8c0 .33-.055.568-.165.714-.11.145-.282.218-.514.218zm3.23-18.378c-.28.283-.568.505-.868.665-.348.185-.69.28-1.024.28h-.006c-.406 0-.73-.136-.944-.408-.215-.274-.315-.67-.316-1.185V3.078h1.855v6.037c0 .193.036.323.09.39.054.068.14.107.288.108.1 0 .25-.052.434-.168.177-.11.34-.25.49-.423V3.078h1.846v8.09h-1.846v-.816zm-7.867 1.033h-.002c-.754 0-1.37-.22-1.83-.664-.46-.442-.69-1.042-.69-1.78V5.1c0-.676.238-1.228.71-1.633.474-.405 1.108-.605 1.89-.604.716 0 1.313.212 1.775.638.464.426.697.983.697 1.65v3.82c0 .744-.227 1.34-.683 1.772-.456.43-1.083.643-1.866.643zm.49-6.74c-.12-.1-.28-.154-.49-.154-.19.002-.336.054-.45.153-.11.102-.165.225-.166.394V9.1c0 .22.056.38.16.49.103.108.248.166.457.166.215 0 .373-.06.49-.174.118-.114.178-.27.18-.483V5.036c-.002-.167-.06-.29-.18-.392zM9.557 11.17h-2.06V7.107L5.215.154l-.034-.1H7.28l1.24 4.612h.002L9.702.054h2.107l-2.254 6.84v4.275z"/></svg>